<?xml version="1.0" encoding="UTF-8" standalone="no"?>
<!-- Created with Inkscape (http://www.inkscape.org/) -->

<svg
   width="135.32756mm"
   height="135.29588mm"
   viewBox="0 0 135.32756 135.29588"
   version="1.1"
   id="svg5"
   inkscape:version="1.1.1 (1:1.1+202109281943+c3084ef5ed)"
   sodipodi:docname="backward_icon.svg"
   xmlns:inkscape="http://www.inkscape.org/namespaces/inkscape"
   xmlns:sodipodi="http://sodipodi.sourceforge.net/DTD/sodipodi-0.dtd"
   xmlns="http://www.w3.org/2000/svg"
   xmlns:svg="http://www.w3.org/2000/svg">
  <sodipodi:namedview
     id="namedview7"
     pagecolor="#ffffff"
     bordercolor="#cccccc"
     borderopacity="1"
     inkscape:pageshadow="0"
     inkscape:pageopacity="1"
     inkscape:pagecheckerboard="0"
     inkscape:document-units="mm"
     showgrid="false"
     fit-margin-top="0"
     fit-margin-left="0"
     fit-margin-right="0"
     fit-margin-bottom="0"
     showborder="false"
     inkscape:zoom="0.47393378"
     inkscape:cx="256.36493"
     inkscape:cy="256.36493"
     inkscape:window-width="1366"
     inkscape:window-height="704"
     inkscape:window-x="0"
     inkscape:window-y="27"
     inkscape:window-maximized="1"
     inkscape:current-layer="layer1" />
  <defs
     id="defs2" />
  <g
     inkscape:label="Layer 1"
     inkscape:groupmode="layer"
     id="layer1"
     transform="translate(-37.326427,-80.855179)">
    <path
       style="fill:#000000;stroke-width:0.264583"
       d="m 98.82609,215.97349 c -16.642988,-1.7161 -31.069859,-8.71438 -42.597916,-20.66365 -5.153526,-5.34183 -8.474449,-10.07002 -11.884892,-16.92122 -11.373214,-22.8475 -8.781085,-49.99685 6.759993,-70.80254 2.469535,-3.30611 9.665021,-10.510958 12.938772,-12.955618 5.325663,-3.976917 11.854471,-7.544397 17.850709,-9.754011 16.230054,-5.980773 35.419004,-5.253102 51.025674,1.934963 8.23,3.790546 14.5942,8.322362 20.94099,14.911646 9.99496,10.37685 16.23895,23.23755 18.28814,37.66792 0.67524,4.75497 0.67524,13.50127 0,18.25625 -1.64568,11.58888 -6.10921,22.35854 -13.20408,31.85901 -2.43826,3.26496 -9.64759,10.47429 -12.91255,12.91254 -9.31754,6.95827 -19.79365,11.37245 -31.00884,13.06578 -4.05,0.61149 -12.52591,0.86737 -16.196,0.48893 z m 0.99219,-42.04937 0.7276,-0.80711 V 148.5191 123.9212 l -0.77205,-0.86407 c -0.64987,-0.72733 -0.95592,-0.86407 -1.93398,-0.86407 -1.13525,0 -1.50499,0.27447 -16.095141,11.94783 -8.213262,6.5713 -15.217327,12.25173 -15.564593,12.62316 -0.869706,0.93024 -0.869706,2.57986 0,3.5101 0.791702,0.84681 30.120684,24.30592 30.661594,24.52502 0.8495,0.34408 2.24822,-0.0671 2.97657,-0.87505 z m 36.03331,0.74795 c 0.36861,-0.16794 0.88023,-0.61443 1.13693,-0.99218 0.43577,-0.64126 0.47197,-2.24905 0.54566,-24.23474 0.0434,-12.95136 0.008,-24.04258 -0.0786,-24.64718 -0.26429,-1.84459 -1.82416,-3.03408 -3.44526,-2.62721 -0.79462,0.19944 -30.9259,24.23712 -31.33168,24.99532 -0.35943,0.67159 -0.36052,2.03241 -0.002,2.70199 0.25487,0.47623 28.24537,23.04951 30.3627,24.48637 1.01549,0.68913 1.80207,0.77797 2.8124,0.31763 z"
       id="path2337" />
  </g>
</svg>
