<?xml version="1.0" encoding="UTF-8" standalone="no"?>
<!-- Created with Inkscape (http://www.inkscape.org/) -->

<svg
   width="135.32758mm"
   height="135.29588mm"
   viewBox="0 0 135.32758 135.29588"
   version="1.1"
   id="svg5"
   inkscape:version="1.1.1 (1:1.1+202109281943+c3084ef5ed)"
   sodipodi:docname="forward_icon.svg"
   xmlns:inkscape="http://www.inkscape.org/namespaces/inkscape"
   xmlns:sodipodi="http://sodipodi.sourceforge.net/DTD/sodipodi-0.dtd"
   xmlns="http://www.w3.org/2000/svg"
   xmlns:svg="http://www.w3.org/2000/svg">
  <sodipodi:namedview
     id="namedview7"
     pagecolor="#ffffff"
     bordercolor="#cccccc"
     borderopacity="1"
     inkscape:pageshadow="0"
     inkscape:pageopacity="1"
     inkscape:pagecheckerboard="0"
     inkscape:document-units="mm"
     showgrid="false"
     fit-margin-top="0"
     fit-margin-left="0"
     fit-margin-right="0"
     fit-margin-bottom="0"
     showborder="false"
     inkscape:zoom="0.47393378"
     inkscape:cx="256.36493"
     inkscape:cy="256.36493"
     inkscape:window-width="1366"
     inkscape:window-height="704"
     inkscape:window-x="0"
     inkscape:window-y="27"
     inkscape:window-maximized="1"
     inkscape:current-layer="layer1" />
  <defs
     id="defs2" />
  <g
     inkscape:label="Layer 1"
     inkscape:groupmode="layer"
     id="layer1"
     transform="translate(-37.326419,-80.855181)">
    <path
       style="fill:#000000;stroke-width:0.264583"
       d="m 98.826083,215.97349 c -16.64299,-1.7161 -31.06986,-8.71438 -42.597916,-20.66365 -5.153526,-5.34183 -8.474449,-10.07002 -11.884892,-16.92122 -11.373215,-22.84751 -8.781086,-49.99685 6.759993,-70.80255 2.469535,-3.3061 9.665021,-10.510946 12.938771,-12.955606 5.325663,-3.976917 11.854471,-7.544397 17.850714,-9.754011 16.23005,-5.980773 35.418997,-5.253102 51.025667,1.934963 8.23,3.790546 14.5942,8.322362 20.94099,14.911644 9.99497,10.37685 16.23896,23.23755 18.28815,37.66792 0.67524,4.75497 0.67524,13.50127 0,18.25625 -1.64568,11.58888 -6.10921,22.35854 -13.20409,31.859 -2.43825,3.26496 -9.64759,10.4743 -12.91255,12.91255 -9.31754,6.95827 -19.79365,11.37245 -31.00885,13.06578 -4.04999,0.61149 -12.5259,0.86736 -16.195987,0.48893 z M 77.0484,174.35444 c 2.117325,-1.43686 30.10782,-24.01015 30.3627,-24.48638 0.35751,-0.66802 0.35751,-2.0299 0,-2.69792 -0.25488,-0.47623 -28.245375,-23.04952 -30.3627,-24.48638 -0.50492,-0.34264 -1.228844,-0.62255 -1.60872,-0.622 -1.155543,0.002 -2.345671,0.9134 -2.657345,2.03577 -0.387212,1.3944 -0.387212,47.44874 0,48.84315 0.311674,1.12236 1.501802,2.03411 2.657345,2.03576 0.379876,5.3e-4 1.1038,-0.27935 1.60872,-0.622 z m 51.3593,-11.50898 c 8.17761,-6.54278 15.1525,-12.19987 15.49977,-12.57131 0.45199,-0.48345 0.63139,-0.98212 0.63139,-1.75505 0,-0.77292 -0.1794,-1.2716 -0.63139,-1.75505 -0.34727,-0.37144 -7.35133,-6.05186 -15.5646,-12.62316 -14.59014,-11.67336 -14.95989,-11.94783 -16.09514,-11.94783 -0.97806,0 -1.28411,0.13674 -1.93398,0.86407 l -0.77205,0.86407 v 24.56639 24.5664 l 0.56571,0.71918 c 0.31114,0.39555 0.81716,0.82632 1.12448,0.95727 1.48534,0.6329 1.81682,0.40352 17.17581,-11.88498 z"
       id="path2124" />
  </g>
</svg>
