<?xml version="1.0" encoding="UTF-8" standalone="no"?>
<!-- Created with Inkscape (http://www.inkscape.org/) -->

<svg
   width="135.32756mm"
   height="135.29588mm"
   viewBox="0 0 135.32756 135.29588"
   version="1.1"
   id="svg5"
   inkscape:version="1.1.1 (1:1.1+202109281943+c3084ef5ed)"
   sodipodi:docname="mute_icon.svg"
   xmlns:inkscape="http://www.inkscape.org/namespaces/inkscape"
   xmlns:sodipodi="http://sodipodi.sourceforge.net/DTD/sodipodi-0.dtd"
   xmlns="http://www.w3.org/2000/svg"
   xmlns:svg="http://www.w3.org/2000/svg">
  <sodipodi:namedview
     id="namedview7"
     pagecolor="#ffffff"
     bordercolor="#cccccc"
     borderopacity="1"
     inkscape:pageshadow="0"
     inkscape:pageopacity="1"
     inkscape:pagecheckerboard="0"
     inkscape:document-units="mm"
     showgrid="false"
     fit-margin-top="0"
     fit-margin-left="0"
     fit-margin-right="0"
     fit-margin-bottom="0"
     showborder="false"
     inkscape:zoom="0.47393378"
     inkscape:cx="256.36493"
     inkscape:cy="256.36493"
     inkscape:window-width="1366"
     inkscape:window-height="704"
     inkscape:window-x="0"
     inkscape:window-y="27"
     inkscape:window-maximized="1"
     inkscape:current-layer="layer1" />
  <defs
     id="defs2" />
  <g
     inkscape:label="Layer 1"
     inkscape:groupmode="layer"
     id="layer1"
     transform="translate(-37.326413,-80.855177)">
    <path
       style="fill:#000000;stroke-width:0.264583"
       d="m 98.826074,215.97349 c -16.642985,-1.71611 -31.069857,-8.71438 -42.597914,-20.66365 -5.153526,-5.34183 -8.474449,-10.07003 -11.884892,-16.92122 -11.373214,-22.84751 -8.781085,-49.99685 6.759993,-70.80255 2.469535,-3.3061 9.665021,-10.51095 12.938772,-12.95561 5.325663,-3.976917 11.854472,-7.544397 17.85071,-9.754011 16.230051,-5.980773 35.418997,-5.253102 51.025667,1.934963 8.23,3.790546 14.5942,8.322362 20.94099,14.911648 9.99496,10.37685 16.23896,23.23755 18.28815,37.66792 0.67523,4.75497 0.67523,13.50127 0,18.25624 -1.64569,11.58889 -6.10921,22.35855 -13.20409,31.85901 -2.43825,3.26496 -9.64759,10.4743 -12.91255,12.91255 -9.31754,6.95827 -19.79365,11.37245 -31.00884,13.06578 -4.05,0.61149 -12.52591,0.86736 -16.195996,0.48893 z m 22.886456,-27.20414 c 1.52,-1.07562 1.58664,-1.52145 1.58709,-10.61775 l 4.1e-4,-8.33521 -15.74271,-15.74104 -15.742703,-15.74104 0.01548,15.08041 0.01548,15.08042 12.542183,9.92188 c 6.89821,5.45703 13.05272,10.19496 13.67671,10.52873 1.27742,0.68332 2.51793,0.62333 3.64805,-0.1764 z m 19.05412,-15.60474 c 1.71234,-0.90993 2.63121,-2.94913 2.25312,-5.0002 -0.15916,-0.86345 -1.45038,-2.26344 -9.95132,-10.78965 l -9.76842,-9.79747 v -18.42958 c 0,-12.41177 -0.0922,-18.67279 -0.28221,-19.1744 -0.67278,-1.77566 -2.62515,-2.76863 -4.33447,-2.2045 -0.48294,0.15938 -5.1484,3.67475 -10.36768,7.81192 l -9.489596,7.52213 -7.540624,-7.50911 c -8.303536,-8.26883 -8.640496,-8.5131 -10.83599,-7.85531 -2.684574,0.80431 -4.110884,3.51633 -3.174931,6.03687 0.29663,0.79884 57.776051,58.52427 59.122371,59.37541 1.0413,0.65831 3.14449,0.665 4.36975,0.0139 z M 85.993785,148.5191 V 133.17327 H 78.24464 c -7.510297,0 -7.785501,0.0183 -8.928598,0.59531 -0.777142,0.39225 -1.381403,0.95631 -1.771502,1.65365 -0.58883,1.05257 -0.59205,1.12382 -0.59205,13.09687 0,11.97305 0.0032,12.0443 0.59205,13.09687 0.390099,0.69734 0.99436,1.2614 1.771502,1.65365 1.143097,0.57696 1.418301,0.59531 8.928598,0.59531 h 7.749145 z"
       id="path1278" />
  </g>
</svg>
