<?xml version="1.0" encoding="UTF-8" standalone="no"?>
<!-- Created with Inkscape (http://www.inkscape.org/) -->

<svg
   width="135.32756mm"
   height="135.29588mm"
   viewBox="0 0 135.32756 135.29588"
   version="1.1"
   id="svg5"
   inkscape:version="1.1.1 (1:1.1+202109281943+c3084ef5ed)"
   sodipodi:docname="unmute_icon.svg"
   xmlns:inkscape="http://www.inkscape.org/namespaces/inkscape"
   xmlns:sodipodi="http://sodipodi.sourceforge.net/DTD/sodipodi-0.dtd"
   xmlns="http://www.w3.org/2000/svg"
   xmlns:svg="http://www.w3.org/2000/svg">
  <sodipodi:namedview
     id="namedview7"
     pagecolor="#ffffff"
     bordercolor="#cccccc"
     borderopacity="1"
     inkscape:pageshadow="0"
     inkscape:pageopacity="1"
     inkscape:pagecheckerboard="0"
     inkscape:document-units="mm"
     showgrid="false"
     fit-margin-top="0"
     fit-margin-left="0"
     fit-margin-right="0"
     fit-margin-bottom="0"
     showborder="false"
     inkscape:zoom="0.47393378"
     inkscape:cx="256.36493"
     inkscape:cy="256.36493"
     inkscape:window-width="1366"
     inkscape:window-height="704"
     inkscape:window-x="0"
     inkscape:window-y="27"
     inkscape:window-maximized="1"
     inkscape:current-layer="layer1" />
  <defs
     id="defs2" />
  <g
     inkscape:label="Layer 1"
     inkscape:groupmode="layer"
     id="layer1"
     transform="translate(-37.326415,-80.855178)">
    <path
       style="fill:#000000;stroke-width:0.264583"
       d="m 98.826078,215.97349 c -16.642987,-1.7161 -31.069858,-8.71438 -42.597915,-20.66365 -5.153527,-5.34183 -8.47445,-10.07002 -11.884893,-16.92122 -11.373213,-22.84751 -8.781085,-49.99685 6.759993,-70.80255 2.469535,-3.3061 9.665022,-10.510949 12.938773,-12.955609 5.325663,-3.976917 11.854471,-7.544397 17.850709,-9.754011 16.230055,-5.980773 35.418995,-5.253102 51.025665,1.934963 8.23001,3.790546 14.59421,8.322362 20.941,14.911647 9.99496,10.37685 16.23895,23.23755 18.28814,37.66792 0.67523,4.75497 0.67523,13.50127 0,18.25625 -1.64568,11.58888 -6.10921,22.35854 -13.20409,31.859 -2.43825,3.26496 -9.64758,10.4743 -12.91255,12.91255 -9.31754,6.95827 -19.79364,11.37245 -31.00884,13.06578 -4.05,0.61149 -12.52591,0.86736 -16.195992,0.48893 z m 8.695322,-32.62962 c 0.48022,-0.20065 1.13123,-0.69295 1.44671,-1.09402 l 0.57359,-0.7292 v -33.01693 -33.01693 l -0.67012,-0.79639 c -0.79895,-0.9495 -2.09268,-1.42989 -3.11058,-1.15503 -0.4059,0.1096 -5.789372,4.18601 -11.963288,9.05869 l -11.2253,8.85942 v 17.06562 17.06563 l 11.229255,8.86354 c 9.858153,7.78129 11.679113,9.11162 12.639673,9.23404 0.11382,0.0145 0.59984,-0.13779 1.08006,-0.33844 z m 27.09545,-7.83795 c 1.4743,-0.89888 5.36021,-4.78976 6.98044,-6.98936 2.77049,-3.76118 4.92891,-8.54622 5.93672,-13.16125 0.67512,-3.09154 0.79443,-8.88896 0.24995,-12.14521 -1.21027,-7.2379 -4.59174,-13.70556 -9.83466,-18.81048 -1.14486,-1.11473 -2.54466,-2.33512 -3.11067,-2.71198 -2.91972,-1.94402 -6.51304,0.50406 -5.85879,3.99152 0.13701,0.7303 0.74834,1.48214 2.83372,3.48504 3.16064,3.03563 4.58363,4.94995 6.15611,8.28169 1.90622,4.03883 2.37933,6.24813 2.37127,11.07321 -0.008,4.83558 -0.49046,7.08821 -2.37127,11.07322 -1.57248,3.33174 -2.99547,5.24605 -6.15611,8.28168 -2.79787,2.68721 -3.24779,3.50948 -2.83619,5.18347 0.61993,2.52126 3.48201,3.76387 5.63948,2.44845 z m -10.39071,-12.73333 c 2.40971,-1.61171 4.55532,-4.08495 5.82708,-6.71688 3.72598,-7.71091 1.22168,-17.0756 -5.82708,-21.7901 -1.73358,-1.15949 -2.21235,-1.35692 -3.2904,-1.35692 -2.3252,0 -4.15135,1.91611 -3.88665,4.07813 0.16345,1.33501 0.78722,2.14677 2.65748,3.4584 1.66861,1.17022 2.82947,2.55231 3.67024,4.36971 0.78648,1.70006 0.78648,5.70828 0,7.40834 -0.84077,1.8174 -2.00163,3.1995 -3.67024,4.36971 -2.09403,1.46856 -2.62859,2.25363 -2.60547,3.82641 0.0328,2.23035 1.57048,3.7073 3.86166,3.70914 1.04639,7.9e-4 1.5439,-0.20588 3.26338,-1.35594 z M 77.659412,148.5191 v -13.09687 l -6.303769,-0.071 c -3.743049,-0.0421 -6.715778,0.04 -7.318017,0.20213 -0.599272,0.16137 -1.3489,0.65426 -1.832169,1.20467 l -0.817919,0.93156 v 10.8295 10.8295 l 0.820633,0.93465 c 0.451348,0.51406 1.195489,1.04429 1.653645,1.17828 0.458157,0.134 3.750045,0.22357 7.315305,0.19904 l 6.482291,-0.0446 z"
       id="path1475" />
  </g>
</svg>
